<?xml version="1.0" standalone="no"?>
<!DOCTYPE svg PUBLIC "-//W3C//DTD SVG 20010904//EN"
 "http://www.w3.org/TR/2001/REC-SVG-20010904/DTD/svg10.dtd">
<svg version="1.0" xmlns="http://www.w3.org/2000/svg"
 width="512.000000pt" height="512.000000pt" viewBox="0 0 512.000000 512.000000"
 preserveAspectRatio="xMidYMid meet">
<metadata>
Created by potrace 1.11, written by Peter Selinger 2001-2013
</metadata>
<g transform="translate(0.000000,512.000000) scale(0.100000,-0.100000)"
fill="#000000" stroke="none">
<path d="M2486 5111 c-3 -4 -5 -111 -5 -237 0 -126 0 -236 0 -245 -1 -12 -11
-15 -43 -13 l-43 2 0 -126 0 -127 -85 -5 -85 -5 0 -80 0 -80 80 -3 81 -3 -7
-82 c-4 -45 -10 -125 -14 -177 -3 -52 -8 -111 -10 -130 -9 -82 -15 -150 -21
-225 -3 -44 -7 -96 -9 -115 -2 -19 -6 -71 -10 -115 -3 -44 -7 -96 -10 -115 -2
-19 -7 -69 -10 -110 -3 -41 -8 -95 -10 -120 -9 -103 -17 -198 -20 -235 -2 -22
-6 -67 -9 -100 -3 -33 -8 -91 -12 -130 -3 -38 -6 -82 -8 -97 -1 -15 -5 -31 -9
-34 -4 -4 -64 -7 -132 -7 l-126 1 3 -86 3 -87 67 1 67 2 -11 -27 c-5 -14 -32
-87 -58 -161 -27 -74 -67 -184 -88 -245 -22 -60 -58 -159 -80 -220 l-39 -110
-102 -3 -101 -3 0 -84 0 -85 60 0 60 0 -87 -168 c-48 -92 -95 -183 -106 -202
-10 -19 -35 -66 -56 -105 -20 -38 -63 -119 -95 -180 -32 -60 -66 -123 -76
-140 -9 -16 -43 -79 -75 -140 -32 -60 -66 -125 -77 -142 l-20 -33 -106 0 -107
0 -1 -85 0 -85 435 -1 c240 0 487 -1 549 -2 66 -1 117 2 121 8 5 6 8 45 9 88
l0 77 -115 0 c-88 0 -114 3 -110 12 2 7 19 58 37 113 63 195 127 295 254 399
196 159 468 199 710 104 153 -60 303 -203 375 -358 23 -49 91 -244 91 -260 0
-6 -45 -10 -110 -10 l-110 0 -1 -37 c0 -21 -1 -59 -2 -86 l-2 -47 420 -1 c231
0 476 -1 545 -1 69 0 131 0 138 1 8 1 12 25 12 86 l0 84 -111 3 -110 3 -195
365 c-108 201 -234 439 -281 530 -47 91 -90 169 -94 175 -21 22 -8 35 34 34
80 -2 75 -8 76 86 l1 85 -105 0 c-58 0 -105 2 -105 4 0 2 -15 46 -34 97 -84
236 -117 325 -122 339 -18 43 -106 297 -107 310 -2 11 12 14 63 15 l65 0 0 85
0 85 -132 3 c-130 3 -133 3 -134 25 0 12 -2 29 -3 37 -2 8 -7 58 -11 110 -4
52 -8 109 -10 125 -2 17 -6 64 -9 105 -4 41 -9 98 -11 125 -3 28 -7 79 -10
115 -3 36 -8 86 -10 112 -3 25 -7 75 -9 110 -3 34 -8 90 -11 123 -12 133 -15
163 -20 230 -3 39 -8 88 -10 110 -2 22 -6 76 -10 120 -3 44 -8 98 -10 120 -2
22 -7 82 -11 133 l-7 92 82 0 81 0 0 85 0 85 -85 0 -85 0 -1 28 c0 15 -1 72
-2 127 l-2 100 -40 0 -40 0 -2 60 c-1 33 -2 147 -2 253 l-1 192 -79 0 c-44 0
-82 -4 -85 -9z m265 -3183 c6 -24 37 -136 70 -250 32 -114 59 -209 59 -212 0
-3 -142 -6 -316 -6 -271 0 -315 2 -311 14 6 14 30 95 32 106 0 3 25 92 55 197
l55 193 172 0 172 0 12 -42z"/>
</g>
</svg>
